<svg width="60" height="63" viewBox="0 0 60 63" fill="none" xmlns="http://www.w3.org/2000/svg">
<path d="M50.2585 11.3717C55.4258 16.6571 58.3682 23.7085 58.4957 31.0783H53.5998C53.4729 24.982 51.0295 19.1538 46.7539 14.7805C42.3616 10.2878 36.3836 7.68639 30.0961 7.53121C23.8085 7.37603 17.709 9.67934 13.0995 13.9498C8.49001 18.2203 5.73563 24.1198 5.42466 30.3891C5.11368 36.6584 7.27077 42.8005 11.4352 47.5045C15.5996 52.2084 21.4414 55.1015 27.7136 55.5666C33.9857 56.0318 40.1919 54.0322 45.0073 49.9944C48.4954 47.0695 49.7645 44.5955 49.3208 42.461C48.8843 40.3614 46.8388 38.8897 44.5114 37.818C42.1464 36.7289 39.2979 35.9669 36.96 35.3843C36.618 35.2991 36.2877 35.2179 35.9715 35.1402C35.7551 35.087 35.5453 35.0354 35.3428 34.9853H58.3049C58.0272 37.9028 57.7918 41.3527 57.559 44.7637C57.4934 45.7254 57.428 46.6841 57.3619 47.6268C57.0491 52.0893 56.722 56.1786 56.2887 58.6098C56.2668 58.6336 56.2173 58.6793 56.1146 58.7408C55.9552 58.8362 55.72 58.9386 55.4021 59.0428C54.7682 59.2506 53.8798 59.442 52.788 59.6138C50.6094 59.9566 47.6951 60.2103 44.5559 60.3799C38.2766 60.719 31.1601 60.7182 27.3506 60.4357C19.804 59.876 12.7758 56.3951 7.76592 50.7362C2.75612 45.0774 0.161491 37.6889 0.53555 30.1478C0.90961 22.6068 4.22275 15.51 9.76815 10.3724C15.3136 5.23486 22.652 2.4635 30.2171 2.65022C37.7823 2.83693 44.9744 5.9669 50.2585 11.3717Z" fill="#DE3EA6" stroke="#DE3EA6"/>
<path d="M36.6625 40.9502H39.3443C39.6934 40.9502 39.9914 40.7505 40.2383 40.5042C40.4851 40.2579 40.2383 40.0582 40.2383 40.0582C40.2383 40.0582 39.4493 39.6122 38.8974 39.6122H37.1095H34.4277H32.1927C32.1927 39.6122 29.511 39.8798 28.6171 40.0582C27.7232 40.2366 25.6249 40.3771 23.7004 40.9502C22.1323 41.4172 21.2045 41.7007 19.6777 42.2883C18.5118 42.7369 17.2366 43.5502 16.1019 44.0723C14.444 44.8352 12.5262 46.0236 12.5262 46.0236C12.5262 46.0236 11.1319 46.967 10.2913 47.6404C9.56788 48.22 9.12769 48.5166 8.50344 49.2015C7.90438 49.8587 7.60942 50.2729 7.16253 51.0413C6.74105 51.766 6.45068 52.1747 6.26859 52.9926C6.07932 53.8428 6.01548 54.3892 6.26859 55.2227C6.59273 56.29 7.20874 56.7259 8.05647 57.4528C8.82844 58.1146 9.33779 58.4356 10.2913 58.7908C11.1251 59.1014 11.6495 59.5289 12.5261 59.6828C13.7417 59.8962 14.4209 60.1072 15.6549 60.1288C17.062 60.1535 17.8433 59.9181 19.2307 59.6828C20.8172 59.4138 21.6777 59.1177 23.2534 58.7908C24.1248 58.61 25.4883 57.8988 25.4883 57.8988C25.4883 57.8988 28.791 56.6164 30.8519 55.6687C32.6243 54.8537 33.6347 54.4178 35.3216 53.4386C36.9536 52.4913 37.8042 51.8524 39.3443 50.7625C40.7682 49.755 41.5599 49.1781 42.9201 48.0864C44.1741 47.08 44.8666 46.4998 46.0489 45.4104C47.3183 44.2405 48.0161 43.5649 49.1777 42.2883C50.6802 40.6368 51.5298 39.6949 52.7534 37.8281C53.5237 36.6529 53.8431 35.9253 54.5413 34.706C55.2395 33.4868 55.7281 32.8537 56.3292 31.5839C56.9661 30.2383 57.6701 28.0158 57.6701 28.0158C57.6701 28.0158 58.2561 25.8508 58.564 24.4477C58.7544 23.5801 58.8824 23.0964 59.011 22.2176C59.1628 21.1799 59.2127 20.59 59.2345 19.5415C59.2635 18.1457 59.263 17.3467 59.011 15.9734C58.7127 14.348 58.4246 13.4302 57.6701 11.9593C57.0965 10.8412 56.7215 10.2192 55.8822 9.28318C54.7183 7.98513 53.8125 7.48763 52.3064 6.6071C50.8232 5.73987 49.921 5.34593 48.2837 4.82304C46.5883 4.2816 45.5894 4.06064 43.814 3.93101C42.7695 3.85474 42.1773 3.863 41.1322 3.93101C39.9005 4.01116 39.2226 4.18494 38.0034 4.37702C36.0757 4.68074 34.9835 4.81076 33.0868 5.26905C31.3156 5.69701 30.3478 6.03769 28.6171 6.6071C26.6767 7.24546 25.5928 7.62268 23.7004 8.39116C22.1081 9.03778 21.2168 9.41106 19.6777 10.1752C18.0687 10.974 17.1692 11.4395 15.6549 12.4053C14.3898 13.2123 13.7082 13.7113 12.5262 14.6354C10.8716 15.9289 9.95461 16.6862 8.50344 18.2035C6.96011 19.8171 6.20283 20.8316 4.92768 22.6636C4.56867 23.1794 4.48067 23.8197 4.48067 24.4477C4.48067 25.0757 4.35891 25.0709 4.92768 25.3397C5.40093 25.5634 5.78727 25.5455 6.26859 25.3397C6.72238 25.1456 6.83176 24.8134 7.16253 24.4477C7.74725 23.8011 7.96393 23.3482 8.50344 22.6636C9.49823 21.4013 10.0473 20.677 11.1853 19.5415C12.3232 18.406 13.059 17.8707 14.314 16.8654C16.1655 15.3824 17.2544 14.6102 19.2307 13.2973C20.6015 12.3867 21.3533 11.8402 22.8065 11.0672C24.8089 10.0021 26.0162 9.54967 28.1701 8.83717C29.3642 8.44217 30.0543 8.26488 31.2619 7.95463L31.2989 7.94514C32.8573 7.54475 33.7369 7.33305 35.3216 7.05311C36.537 6.83841 37.2271 6.77128 38.4504 6.6071C39.8451 6.4199 40.62 6.10381 42.0261 6.16108C43.087 6.20429 43.6781 6.34947 44.708 6.6071C46.1546 6.96896 46.963 7.2538 48.2837 7.94514C49.3984 8.52863 50.0784 8.83817 50.9655 9.7292C51.5807 10.347 52.4182 11.0672 52.7534 11.5133C53.0886 11.9593 53.6298 12.4819 54.0943 13.2973C54.5589 14.1128 54.7227 14.6276 54.9883 15.5274C55.2397 16.3793 55.3338 16.8751 55.4352 17.7575C55.5745 18.9688 55.4352 19.6603 55.4352 20.8796C55.4352 21.7505 55.0734 22.6889 54.9883 23.5556C54.9014 24.4396 54.7427 24.4746 54.5413 25.3397C54.1289 27.111 53.8835 28.1139 53.2004 29.7999C52.6152 31.2442 52.1628 32.0017 51.4125 33.368C50.0165 35.9102 49.1473 37.3039 47.3898 39.6122C45.0737 42.6538 43.5694 44.2365 40.6852 46.7484C38.239 48.8789 36.7396 49.9463 33.9807 51.6546C31.7908 53.0105 28.1701 54.7767 28.1701 54.7767C28.1701 54.7767 26.2817 55.6377 25.0413 56.1147C23.4961 56.709 22.6364 57.1002 21.0186 57.4528C19.6437 57.7524 18.8481 57.8243 17.4428 57.8988C16.397 57.9542 15.7873 58.1071 14.761 57.8988C13.8399 57.7118 13.3433 57.4703 12.5262 57.0067C11.7674 56.5763 11.1976 56.4092 10.7382 55.6687C10.4477 55.2004 9.8443 54.3306 9.8443 54.3306C9.8443 54.3306 9.7194 53.2321 9.8443 52.5466C9.94305 52.0047 10.2913 51.0413 10.2913 51.0413C10.2913 51.0413 10.797 50.3648 11.1853 49.8705C11.7883 49.1027 12.2157 48.7361 12.9508 48.1055L12.9731 48.0864C13.6349 47.5187 14.0628 47.2709 14.761 46.7484C15.4592 46.2259 16.2513 45.8649 16.9958 45.4104C18.1298 44.7181 18.8836 44.5479 20.1246 44.0723C22.3409 43.2229 23.2305 43.0208 25.4883 42.2883C26.5381 41.9476 27.5439 41.6547 28.6171 41.3962C29.8169 41.1072 30.5142 41.0304 31.7458 40.9502C32.7909 40.8822 33.3803 40.9502 34.4277 40.9502H36.6625Z" fill="#43722F"/>
<path d="M27.723 8.83716L23.7003 10.6212C23.7003 10.6212 23.1478 12.2497 22.8064 13.2973C22.0723 15.5503 21.6529 16.8125 21.0185 19.0955C20.4417 21.1716 20.1465 22.3446 19.6776 24.4477C19.2911 26.1816 19.0429 27.1505 18.7837 28.9078C18.5029 30.8112 18.5203 31.8988 18.3367 33.814C18.1696 35.5565 17.9769 36.5258 17.8897 38.2741C17.803 40.0138 17.8897 43.1803 17.8897 43.1803L20.1246 42.2882C20.1246 42.2882 20.5715 37.3821 20.5716 36.9361C20.5716 36.4901 21.0831 33.3968 21.4655 31.1379C21.7906 29.2177 21.9433 28.1343 22.3594 26.2317C22.8064 24.1887 23.1035 23.0514 23.7003 21.0468C24.4569 18.5056 25.0803 17.1453 25.9352 14.6353C26.6457 12.5493 27.723 8.83716 27.723 8.83716Z" fill="#43722F"/>
<path d="M18.7836 47.6404L18.3367 44.9643L20.1245 44.0723V44.5183V45.4103C20.1678 46.469 20.3616 47.0479 20.5715 48.0864C20.8561 49.4944 20.9224 50.3244 21.4655 51.6545C21.76 52.3759 22.0103 52.7419 22.3594 53.4386C22.8831 54.4837 23.0717 55.1289 23.7003 56.1147C24.1689 56.8494 24.4241 57.2829 25.0412 57.8987C25.6583 58.5146 26.0844 58.7827 26.8291 59.2368C27.4952 59.643 27.8922 59.8395 28.617 60.1288C29.1295 60.3334 28.9872 60.4007 29.5109 60.5748C30.0346 60.749 31.2988 61.0208 31.2988 61.0208L32.8014 60.646C32.7415 60.511 33.7057 59.6485 33.9806 59.6828C34.5283 59.7511 35.0747 59.6362 35.3215 60.1288C35.4776 60.4404 35.4319 60.6904 35.3215 61.0208C35.1654 61.4882 34.8225 61.6173 34.4276 61.9129C33.5444 62.5738 32.841 62.6664 31.7458 62.8049C30.3496 62.9815 29.5051 62.803 28.17 62.3589C26.8349 61.9148 26.1171 61.48 25.0412 60.5748C23.9989 59.698 22.8064 57.8987 22.8064 57.8987C22.8064 57.8987 21.6195 56.0464 21.0185 54.7766C20.3815 53.431 20.1195 52.6299 19.6776 51.2085C19.251 49.8367 18.7836 47.6404 18.7836 47.6404Z" fill="#43722F"/>
<path d="M28.617 6.60711L25.0413 7.94515C25.0413 7.94515 26.8291 1.25492 27.4996 0.808921C28.17 0.36292 28.1478 0.390446 28.617 0.362906C29.168 0.330562 29.5546 0.432862 29.9579 0.808921C30.4838 1.29924 30.4049 2.59298 30.4049 2.59298L28.617 6.60711Z" fill="#43722F"/>
<path d="M18.3367 44.9643L19.6776 44.0723" stroke="#43722F"/>
</svg>
